<?xml version="1.0" encoding="utf-8"?>
<!-- Generator: Adobe Illustrator 27.5.0, SVG Export Plug-In . SVG Version: 6.00 Build 0)  -->
<svg version="1.1" id="Ñëîé_4" xmlns="http://www.w3.org/2000/svg" xmlns:xlink="http://www.w3.org/1999/xlink" x="0px" y="0px"
	 viewBox="0 0 3200 2000" style="enable-background:new 0 0 3200 2000;" xml:space="preserve">
<rect x="0" y="0" style="fill:#6FB3CE;" width="3200" height="2000"/>
<g>
	<path style="opacity:0.45;fill:#FFFFFF;" d="M1870.855,1013.019l-40.299-0.072c0.062,6.236-1.777,26.767-28.684,26.718
		c-31.724-0.057-137.202-0.246-151.478-0.271c-13.681-0.025-25.124-13.158-26.032-26.816l-42.187-0.076
		c-20.603-0.037-37.334,16.635-37.371,37.238l-1.249,696.91c-0.037,20.603,16.635,37.334,37.238,37.371l288.679,0.517
		c20.603,0.037,37.334-16.635,37.371-37.238l1.249-696.909C1908.13,1029.787,1891.458,1013.056,1870.855,1013.019z"/>
	<g>
		<path style="fill:#0F1011;" d="M1824.122,303.05v8.87c6.074,2.47,11.74,5.745,16.866,9.697c-1.443-8.807-3.731-19.673-7.117-27.98
			c-3.902-9.573-8.105-13.626-9.928-15.037c0.114,0.502,0.179,1.022,0.179,1.557V303.05z"/>
		<path style="fill:#0F1011;" d="M1634.978,303.05v-22.894c0-0.535,0.065-1.055,0.179-1.557c-1.823,1.411-6.027,5.464-9.928,15.037
			c-3.386,8.308-5.674,19.174-7.117,27.98c5.126-3.952,10.792-7.227,16.867-9.697V303.05z"/>
		<path style="fill:#0F1011;" d="M1817.026,273.06c0.803,0,1.573,0.142,2.295,0.39l-14.113-80.764
			c0-7.917-6.008-14.395-13.351-14.395h-126.838c-7.343,0-13.351,6.478-13.351,14.395l-11.945,80.785
			c0.738-0.262,1.527-0.411,2.352-0.411H1817.026z"/>
		<path style="fill:#404349;" d="M1634.978,303.05h189.144v-22.894c0-0.535-0.065-1.055-0.179-1.557
			c-0.545-2.406-2.319-4.354-4.623-5.149c-0.721-0.249-1.491-0.39-2.295-0.39h-174.951c-0.824,0-1.614,0.15-2.352,0.411
			c-2.276,0.807-4.025,2.742-4.566,5.128c-0.114,0.502-0.179,1.022-0.179,1.557V303.05z"/>
		<path style="fill:#1E2023;" d="M1634.978,303.05v8.87c8.327-3.386,17.41-5.271,26.915-5.271h135.313
			c9.506,0,18.588,1.884,26.916,5.271v-8.87H1634.978z"/>
		<path style="fill:#0F1011;" d="M1634.978,662.331v-10.669c-6.205-2.523-11.981-5.889-17.194-9.954
			c1.415,9.122,3.789,21.068,7.444,30.037c3.901,9.573,8.105,13.626,9.928,15.037c-0.114-0.502-0.179-1.022-0.179-1.557V662.331z"/>
		<path style="fill:#0F1011;" d="M1824.122,662.331v22.894c0,0.535-0.065,1.055-0.179,1.557c1.823-1.411,6.027-5.464,9.928-15.037
			c3.655-8.969,6.03-20.915,7.444-30.037c-5.212,4.066-10.989,7.431-17.194,9.954V662.331z"/>
		<path style="fill:#0F1011;" d="M1642.074,692.322c-0.803,0-1.573-0.142-2.295-0.391l14.113,80.764
			c0,7.917,6.008,14.395,13.351,14.395h126.838c7.343,0,13.351-6.478,13.351-14.395l11.945-80.785
			c-0.738,0.262-1.527,0.412-2.352,0.412H1642.074z"/>
		<path style="fill:#404349;" d="M1824.122,662.331h-189.144v22.894c0,0.535,0.065,1.055,0.179,1.557
			c0.545,2.406,2.319,4.354,4.623,5.149c0.721,0.249,1.492,0.391,2.295,0.391h174.951c0.825,0,1.614-0.15,2.352-0.412
			c2.276-0.807,4.025-2.742,4.565-5.128c0.114-0.502,0.179-1.022,0.179-1.557V662.331z"/>
		<path style="fill:#1E2023;" d="M1824.122,662.331v-10.669c-8.327,3.387-17.41,5.271-26.916,5.271h-135.313
			c-9.506,0-18.588-1.884-26.915-5.271v10.669H1824.122z"/>
		<path style="fill:#2D3035;" d="M1867.514,400.218h1.669v-21.593c0-23.147-11.084-43.819-28.194-57.009
			c-5.126-3.952-10.792-7.227-16.866-9.697c-8.327-3.386-17.41-5.271-26.916-5.271h-135.313c-9.506,0-18.588,1.884-26.915,5.271
			c-6.075,2.47-11.74,5.745-16.867,9.697c-17.11,13.19-28.194,33.862-28.194,57.009v206.332c0,22.998,10.944,43.551,27.867,56.751
			c5.213,4.066,10.989,7.431,17.194,9.954c8.327,3.386,17.41,5.271,26.915,5.271h135.313c9.506,0,18.589-1.884,26.916-5.271
			c6.205-2.523,11.981-5.889,17.194-9.954c16.923-13.2,27.867-33.753,27.867-56.751v-83.972h-1.669V400.218z M1855.832,570.824
			c0,40.102-32.811,72.913-72.913,72.913h-106.736c-40.102,0-72.913-32.811-72.913-72.913V391.558
			c0-40.102,32.811-72.913,72.913-72.913h106.736c40.102,0,72.913,32.811,72.913,72.913V570.824z"/>
		<path style="fill:#0F1011;" d="M1761.011,573.586c0-1.017-0.312-1.878-0.935-2.583c-0.624-0.705-1.415-1.058-2.373-1.058
			c-1.141,0-2.038,0.451-2.692,1.353c-0.655,0.902-0.982,2.148-0.982,3.739c0,1.451,0.314,2.598,0.942,3.438
			c0.627,0.84,1.469,1.26,2.527,1.26c1.042,0,1.889-0.406,2.539-1.218c0.65-0.812,0.975-1.837,0.975-3.075V573.586z"/>
		<path style="fill:#0F1011;" d="M1706.281,480.243v-28.632c0-3.752-0.492-6.73-1.476-8.932c-0.983-2.203-2.812-3.304-5.485-3.304
			c-2.673,0-4.515,1.101-5.522,3.304c-1.01,2.202-1.513,5.18-1.513,8.932v28.632c0,8.157,2.345,12.236,7.036,12.236
			C1703.96,492.478,1706.281,488.4,1706.281,480.243z"/>
		<path style="fill:#0F1011;" d="M1782.918,318.645h-106.736c-40.102,0-72.913,32.811-72.913,72.913v179.266
			c0,40.102,32.811,72.913,72.913,72.913h106.736c40.102,0,72.913-32.811,72.913-72.913V391.558
			C1855.832,351.456,1823.021,318.645,1782.918,318.645z M1676.182,322.244h106.736c16.206,0,31.218,5.363,43.359,14.395
			c-12.141,9.033-27.152,14.395-43.359,14.395h-106.736c-16.206,0-31.218-5.363-43.358-14.395
			C1644.964,327.606,1659.976,322.244,1676.182,322.244z M1801.835,491.581v7.342h-28.902v-6.199l15.585-26.185
			c0.757-1.305,1.26-2.121,1.514-2.447c1.765-3.045,3.052-5.573,3.859-7.586c0.806-2.012,1.21-4.432,1.21-7.26
			c0-3.153-0.48-5.573-1.438-7.26c-0.958-1.685-2.522-2.529-4.691-2.529c-4.842,0-7.263,4.052-7.263,12.154v2.202h-8.095v-2.284
			c0-6.199,1.184-10.957,3.555-14.276c2.37-3.316,6.178-4.976,11.424-4.976c4.842,0,8.498,1.483,10.97,4.446
			c2.471,2.965,3.708,7.166,3.708,12.603c0,2.665-0.291,5.044-0.87,7.137c-0.58,2.094-1.275,3.903-2.081,5.424
			c-0.807,1.523-2.069,3.699-3.783,6.526l-14.072,23.167H1801.835z M1776.824,568.543h2.076l3.161,9.693
			c0.037,0.123,0.117,0.443,0.239,0.959h0.069c0.037-0.197,0.114-0.508,0.228-0.935l3.32-9.717h1.939l-5.374,14.613
			c-0.958,2.608-2.304,3.912-4.038,3.912c-0.487,0-0.894-0.053-1.221-0.16V585.1c0.403,0.148,0.772,0.221,1.106,0.221
			c0.943,0,1.651-0.607,2.123-1.82l0.935-2.386L1776.824,568.543z M1773.116,579.171c-0.814,1.509-2.011,2.263-3.594,2.263
			c-1.163,0-2.075-0.332-2.732-0.996c-0.658-0.664-0.988-1.546-0.988-2.645c0-2.353,1.286-3.723,3.857-4.108l3.503-0.529
			c0-2.14-0.802-3.211-2.407-3.211c-1.407,0-2.677,0.517-3.811,1.55v-2.067c1.149-0.787,2.472-1.181,3.97-1.181
			c2.746,0,4.119,1.566,4.119,4.699v8.192h-1.871v-1.968H1773.116z M1760.965,578.999c-0.867,1.624-2.206,2.436-4.016,2.436
			c-1.468,0-2.64-0.564-3.519-1.691c-0.879-1.128-1.318-2.663-1.318-4.607c0-2.083,0.487-3.752,1.461-5.006
			c0.974-1.255,2.271-1.882,3.891-1.882c1.604,0,2.772,0.681,3.502,2.042h0.046v-7.799h1.871v18.648h-1.871v-2.14H1760.965z
			 M1751.75,499.657c-4.893,0-8.613-1.481-11.16-4.446c-2.547-2.963-3.82-7.137-3.82-12.522v-2.202h8.019v1.469
			c0.101,3.373,0.643,5.955,1.627,7.75c0.984,1.794,2.761,2.692,5.334,2.692c2.724,0,4.577-1.02,5.561-3.059
			c0.983-2.039,1.475-5.07,1.475-9.095c0-3.698-0.631-6.594-1.891-8.688c-1.262-2.093-3.305-3.249-6.129-3.467
			c-0.202-0.053-0.58-0.081-1.134-0.081v-8.728h1.059c2.875-0.108,4.942-0.924,6.204-2.447c1.259-1.522,1.891-4.051,1.891-7.587
			c0-3.263-0.505-5.723-1.512-7.382c-1.01-1.658-2.826-2.488-5.448-2.488c-2.624,0-4.426,0.897-5.41,2.692
			c-0.984,1.795-1.526,4.433-1.627,7.913v1.386h-8.019v-2.202c0-5.384,1.273-9.544,3.82-12.48c2.547-2.937,6.292-4.405,11.236-4.405
			c4.943,0,8.687,1.483,11.234,4.446c2.547,2.965,3.82,7.138,3.82,12.521c0,3.862-0.783,7.015-2.345,9.463
			c-1.564,2.447-3.707,4.107-6.43,4.976c2.773,0.926,4.93,2.802,6.469,5.628c1.538,2.828,2.307,6.472,2.307,10.931
			c0,6.146-1.223,10.918-3.669,14.316C1760.765,497.958,1756.944,499.657,1751.75,499.657z M1744.8,569.945
			c-0.936,0-1.709,0.38-2.322,1.138c-0.613,0.759-0.918,1.716-0.918,2.872v7.183h-1.871v-12.596h1.871v2.091h0.046
			c0.882-1.591,2.16-2.386,3.833-2.386c1.278,0,2.255,0.445,2.932,1.335c0.677,0.89,1.016,2.175,1.016,3.856v7.7h-1.871v-7.183
			C1747.516,571.282,1746.61,569.945,1744.8,569.945z M1731.55,481.793v9.299h-8.171v-9.299H1731.55z M1723.379,465.07v-9.299h8.171
			v9.299H1723.379z M1726.808,570.032c1.073-1.189,2.521-1.784,4.347-1.784c1.741,0,3.101,0.578,4.078,1.734
			c0.977,1.156,1.465,2.759,1.465,4.809c0,2.009-0.526,3.619-1.579,4.828c-1.054,1.209-2.467,1.814-4.239,1.814
			c-1.727,0-3.106-0.588-4.135-1.765c-1.031-1.177-1.546-2.737-1.546-4.681C1725.2,572.873,1725.736,571.221,1726.808,570.032z
			 M1720.158,565.874c-0.183,0.795-0.347,1.365-0.491,1.71l-5.59,13.555h-0.936l-5.579-13.457c-0.159-0.394-0.323-0.996-0.491-1.808
			h-0.046c0.061,0.705,0.091,1.857,0.091,3.456v11.809h-1.848V563.5h2.533l5.02,12.301c0.388,0.943,0.638,1.648,0.752,2.116h0.069
			c0.327-0.968,0.589-1.689,0.787-2.165l5.122-12.252h2.397v17.639h-1.906v-11.833c0-0.935,0.054-2.079,0.161-3.432H1720.158z
			 M1687.934,494.355c-2.548-3.534-3.821-8.266-3.821-14.194v-28.469c0-6.036,1.249-10.78,3.745-14.234
			c2.496-3.453,6.318-5.18,11.462-5.18c5.094,0,8.89,1.727,11.387,5.18c2.497,3.454,3.745,8.198,3.745,14.234v28.469
			c0,5.983-1.262,10.727-3.783,14.235c-2.523,3.508-6.306,5.261-11.349,5.261C1694.276,499.657,1690.48,497.89,1687.934,494.355z
			 M1695.264,578.334l-1.825,6.052h-1.335l1.335-6.052H1695.264z M1680.045,565.32V563.5h10.541v0.64l-6.48,17h-1.94l6.127-15.819
			H1680.045z M1678.105,572.246c0,2.985-0.483,5.263-1.448,6.833c-0.966,1.57-2.316,2.355-4.051,2.355
			c-1.62,0-2.884-0.75-3.793-2.251c-0.909-1.501-1.362-3.67-1.362-6.507c0-3.116,0.473-5.474,1.42-7.073
			c0.947-1.599,2.314-2.399,4.101-2.399C1676.395,563.205,1678.105,566.218,1678.105,572.246z M1663.906,372.627v8.397h-3.338
			v-8.397H1663.906z M1658.343,369.028v15.595h-3.338v-15.595H1658.343z M1647.217,384.623h-3.338v-15.595h3.338V384.623z
			 M1649.442,369.028h3.338v15.595h-3.338V369.028z M1652.034,440.027c6.154-1.576,10.365-3.969,12.635-7.178h6.128v66.074h-8.095
			v-54.654c-0.102,0.163-1.627,0.544-4.578,1.142c-2.95,0.599-4.981,1.007-6.09,1.224V440.027z M1852.233,391.558v179.266
			c0,16.036-5.257,30.897-14.118,42.97c-8.861-12.072-14.118-26.934-14.118-42.97V391.558c0-16.036,5.257-30.897,14.118-42.97
			C1846.975,360.661,1852.233,375.522,1852.233,391.558z"/>
		<path style="fill:#0F1011;" d="M1773.162,574.767l-2.819,0.418c-0.867,0.131-1.52,0.363-1.962,0.695
			c-0.44,0.332-0.661,0.92-0.661,1.765c0,0.615,0.203,1.117,0.61,1.507c0.406,0.39,0.948,0.584,1.625,0.584
			c0.928,0,1.694-0.35,2.3-1.051c0.604-0.701,0.907-1.589,0.907-2.663V574.767z"/>
		<path style="fill:#0F1011;" d="M1731.019,579.737c1.209,0,2.139-0.422,2.789-1.267c0.65-0.845,0.975-2.046,0.975-3.604
			c0-1.574-0.324-2.788-0.975-3.641c-0.65-0.853-1.58-1.279-2.789-1.279c-1.202,0-2.153,0.441-2.852,1.323
			c-0.699,0.881-1.05,2.097-1.05,3.647c0,1.492,0.354,2.669,1.061,3.53C1728.885,579.306,1729.832,579.737,1731.019,579.737z"/>
		<path style="fill:#0F1011;" d="M1672.868,564.914c-2.335,0-3.502,2.554-3.502,7.663c0,4.773,1.145,7.159,3.434,7.159
			c2.259,0,3.388-2.427,3.388-7.282C1676.188,567.428,1675.082,564.914,1672.868,564.914z"/>
		<path style="fill:#292C30;" d="M1782.918,351.034c16.206,0,31.218-5.363,43.359-14.395c-12.141-9.033-27.152-14.395-43.359-14.395
			h-106.736c-16.206,0-31.218,5.363-43.358,14.395c12.14,9.033,27.152,14.395,43.358,14.395H1782.918z"/>
		<path style="fill:#404349;" d="M1823.996,570.824c0,16.036,5.257,30.897,14.118,42.97c8.861-12.072,14.118-26.934,14.118-42.97
			V391.558c0-16.036-5.257-30.897-14.118-42.97c-8.861,12.072-14.118,26.934-14.118,42.97V570.824z"/>
		<path style="fill:#0F1011;" d="M1873.398,400.218h-4.216h-1.669v100.767h1.669h4.216c3.495,0,6.354-2.859,6.354-6.354v-88.059
			C1879.753,403.077,1876.893,400.218,1873.398,400.218z"/>
		<path style="fill:#ABFFC3;" d="M1662.703,444.269v54.654h8.095v-66.074h-6.128c-2.27,3.209-6.482,5.602-12.635,7.178v6.608
			c1.109-0.217,3.141-0.624,6.09-1.224C1661.075,444.813,1662.601,444.432,1662.703,444.269z"/>
		<path style="fill:#ABFFC3;" d="M1710.669,494.396c2.521-3.507,3.783-8.252,3.783-14.235v-28.469c0-6.036-1.249-10.78-3.745-14.234
			c-2.496-3.453-6.293-5.18-11.387-5.18c-5.144,0-8.965,1.727-11.462,5.18c-2.497,3.454-3.745,8.198-3.745,14.234v28.469
			c0,5.928,1.273,10.659,3.821,14.194c2.546,3.536,6.341,5.302,11.386,5.302C1704.363,499.657,1708.146,497.903,1710.669,494.396z
			 M1692.284,480.243v-28.632c0-3.752,0.504-6.73,1.513-8.932c1.008-2.203,2.849-3.304,5.522-3.304c2.673,0,4.502,1.101,5.485,3.304
			c0.984,2.202,1.476,5.18,1.476,8.932v28.632c0,8.157-2.321,12.236-6.961,12.236C1694.629,492.478,1692.284,488.4,1692.284,480.243
			z"/>
		<rect x="1723.379" y="455.771" style="fill:#ABFFC3;" width="8.171" height="9.299"/>
		<rect x="1723.379" y="481.793" style="fill:#ABFFC3;" width="8.171" height="9.299"/>
		<path style="fill:#ABFFC3;" d="M1766.881,480.243c0-4.459-0.769-8.103-2.307-10.931c-1.539-2.827-3.696-4.703-6.469-5.628
			c2.724-0.869,4.866-2.529,6.43-4.976c1.563-2.447,2.345-5.6,2.345-9.463c0-5.384-1.273-9.556-3.82-12.521
			c-2.548-2.963-6.292-4.446-11.234-4.446c-4.944,0-8.689,1.468-11.236,4.405c-2.547,2.936-3.82,7.097-3.82,12.48v2.202h8.019
			v-1.386c0.101-3.48,0.643-6.118,1.627-7.913c0.984-1.795,2.786-2.692,5.41-2.692c2.622,0,4.438,0.83,5.448,2.488
			c1.007,1.66,1.512,4.12,1.512,7.382c0,3.536-0.631,6.065-1.891,7.587c-1.262,1.523-3.329,2.339-6.204,2.447h-1.059v8.728
			c0.554,0,0.932,0.028,1.134,0.081c2.825,0.218,4.867,1.374,6.129,3.467c1.259,2.094,1.891,4.99,1.891,8.688
			c0,4.025-0.492,7.056-1.475,9.095c-0.984,2.04-2.837,3.059-5.561,3.059c-2.573,0-4.35-0.897-5.334-2.692
			c-0.984-1.795-1.526-4.377-1.627-7.75v-1.469h-8.019v2.202c0,5.384,1.273,9.558,3.82,12.522c2.547,2.965,6.266,4.446,11.16,4.446
			c5.194,0,9.015-1.699,11.462-5.098C1765.658,491.16,1766.881,486.388,1766.881,480.243z"/>
		<path style="fill:#ABFFC3;" d="M1800.321,461.888c0.806-1.522,1.501-3.33,2.081-5.424c0.58-2.093,0.87-4.472,0.87-7.137
			c0-5.438-1.237-9.638-3.708-12.603c-2.472-2.963-6.128-4.446-10.97-4.446c-5.246,0-9.054,1.66-11.424,4.976
			c-2.371,3.318-3.555,8.076-3.555,14.276v2.284h8.095v-2.202c0-8.103,2.422-12.154,7.263-12.154c2.168,0,3.732,0.844,4.691,2.529
			c0.957,1.686,1.438,4.107,1.438,7.26c0,2.829-0.404,5.249-1.21,7.26c-0.807,2.013-2.094,4.541-3.859,7.586
			c-0.253,0.326-0.757,1.142-1.514,2.447l-15.585,26.185v6.199h28.902v-7.342h-19.368l14.072-23.167
			C1798.252,465.588,1799.514,463.411,1800.321,461.888z"/>
		<path style="fill:#F4F4F4;" d="M1672.971,563.205c-1.788,0-3.155,0.799-4.101,2.399c-0.947,1.599-1.42,3.956-1.42,7.073
			c0,2.837,0.453,5.006,1.362,6.507c0.909,1.501,2.173,2.251,3.793,2.251c1.735,0,3.084-0.785,4.051-2.355
			c0.965-1.57,1.448-3.848,1.448-6.833C1678.105,566.218,1676.395,563.205,1672.971,563.205z M1672.8,579.737
			c-2.289,0-3.434-2.386-3.434-7.159c0-5.109,1.167-7.663,3.502-7.663c2.214,0,3.32,2.513,3.32,7.54
			C1676.188,577.31,1675.059,579.737,1672.8,579.737z"/>
		<polygon style="fill:#F4F4F4;" points="1684.106,581.139 1690.586,564.14 1690.586,563.5 1680.045,563.5 1680.045,565.32 
			1688.293,565.32 1682.166,581.139 		"/>
		<polygon style="fill:#F4F4F4;" points="1693.438,584.386 1695.264,578.334 1693.438,578.334 1692.103,584.386 		"/>
		<path style="fill:#F4F4F4;" d="M1720.043,581.139h1.906V563.5h-2.397l-5.122,12.252c-0.198,0.476-0.46,1.197-0.787,2.165h-0.069
			c-0.114-0.467-0.364-1.173-0.752-2.116l-5.02-12.301h-2.533v17.639h1.848v-11.809c0-1.599-0.031-2.751-0.091-3.456h0.046
			c0.168,0.812,0.332,1.415,0.491,1.808l5.579,13.457h0.936l5.59-13.555c0.144-0.344,0.308-0.914,0.491-1.71h0.046
			c-0.107,1.353-0.161,2.497-0.161,3.432V581.139z"/>
		<path style="fill:#F4F4F4;" d="M1730.882,581.434c1.771,0,3.184-0.605,4.239-1.814c1.053-1.21,1.579-2.819,1.579-4.828
			c0-2.05-0.488-3.653-1.465-4.809c-0.977-1.156-2.337-1.734-4.078-1.734c-1.826,0-3.274,0.595-4.347,1.784
			c-1.072,1.189-1.609,2.841-1.609,4.957c0,1.944,0.516,3.504,1.546,4.681C1727.776,580.846,1729.155,581.434,1730.882,581.434z
			 M1728.166,571.268c0.699-0.882,1.651-1.323,2.852-1.323c1.209,0,2.139,0.426,2.789,1.279c0.65,0.853,0.975,2.067,0.975,3.641
			c0,1.558-0.324,2.759-0.975,3.604c-0.65,0.845-1.58,1.267-2.789,1.267c-1.187,0-2.133-0.43-2.841-1.292
			c-0.708-0.861-1.061-2.038-1.061-3.53C1727.116,573.365,1727.467,572.15,1728.166,571.268z"/>
		<path style="fill:#F4F4F4;" d="M1749.386,581.139v-7.7c0-1.681-0.339-2.966-1.016-3.856c-0.677-0.89-1.654-1.335-2.932-1.335
			c-1.673,0-2.951,0.796-3.833,2.386h-0.046v-2.091h-1.871v12.596h1.871v-7.183c0-1.156,0.306-2.113,0.918-2.872
			c0.613-0.759,1.386-1.138,2.322-1.138c1.81,0,2.716,1.337,2.716,4.01v7.183H1749.386z"/>
		<path style="fill:#F4F4F4;" d="M1762.882,581.139v-18.648h-1.871v7.799h-0.046c-0.73-1.361-1.898-2.042-3.502-2.042
			c-1.62,0-2.917,0.627-3.891,1.882c-0.973,1.255-1.461,2.923-1.461,5.006c0,1.943,0.439,3.479,1.318,4.607
			c0.879,1.128,2.051,1.691,3.519,1.691c1.81,0,3.149-0.812,4.016-2.436h0.046v2.14H1762.882z M1760.036,578.519
			c-0.65,0.812-1.497,1.218-2.539,1.218c-1.058,0-1.9-0.42-2.527-1.26c-0.628-0.841-0.942-1.987-0.942-3.438
			c0-1.591,0.327-2.837,0.982-3.739c0.654-0.902,1.551-1.353,2.692-1.353c0.958,0,1.749,0.353,2.373,1.058
			c0.623,0.705,0.935,1.566,0.935,2.583v1.857C1761.011,576.682,1760.687,577.707,1760.036,578.519z"/>
		<path style="fill:#F4F4F4;" d="M1775.033,581.139v-8.192c0-3.133-1.373-4.699-4.119-4.699c-1.499,0-2.821,0.394-3.97,1.181v2.067
			c1.134-1.033,2.404-1.55,3.811-1.55c1.605,0,2.407,1.07,2.407,3.211l-3.503,0.529c-2.57,0.385-3.857,1.755-3.857,4.108
			c0,1.099,0.329,1.98,0.988,2.645c0.657,0.664,1.569,0.996,2.732,0.996c1.583,0,2.78-0.754,3.594-2.263h0.046v1.968H1775.033z
			 M1772.255,578.685c-0.606,0.701-1.372,1.051-2.3,1.051c-0.677,0-1.218-0.195-1.625-0.584c-0.408-0.39-0.61-0.892-0.61-1.507
			c0-0.845,0.22-1.433,0.661-1.765c0.442-0.332,1.095-0.564,1.962-0.695l2.819-0.418v1.255
			C1773.162,577.096,1772.859,577.984,1772.255,578.685z"/>
		<path style="fill:#F4F4F4;" d="M1778.329,585.321c-0.334,0-0.703-0.074-1.106-0.221v1.808c0.327,0.107,0.733,0.16,1.221,0.16
			c1.734,0,3.08-1.304,4.038-3.912l5.374-14.613h-1.939l-3.32,9.717c-0.115,0.427-0.191,0.738-0.228,0.935h-0.069
			c-0.122-0.517-0.202-0.837-0.239-0.959l-3.161-9.693h-2.076l4.563,12.571l-0.935,2.386
			C1779.98,584.714,1779.272,585.321,1778.329,585.321z"/>
		<rect x="1643.879" y="369.028" style="fill:#ABFFC3;" width="3.338" height="15.595"/>
		<rect x="1649.442" y="369.028" style="fill:#ABFFC3;" width="3.338" height="15.595"/>
		<rect x="1655.005" y="369.028" style="fill:#ABFFC3;" width="3.338" height="15.595"/>
		<rect x="1660.568" y="372.627" style="fill:#ABFFC3;" width="3.338" height="8.397"/>
	</g>
	<g>
		<path style="fill:#CDCDCD;" d="M2247.764,641.567V432.116c0,0-22.766-8.196-32.784-22.766
			c-10.017-14.571-17.302-12.749-20.034-20.945c-2.732-8.196-3.059-53.271,1.821-60.103c4.553-6.375,11.838-5.464,15.481-8.196
			c3.643-2.732,33.694-35.516,75.584-29.141c39.745,6.048,64.656,39.158,66.478,65.567c1.821,26.409-15.481,53.729-32.784,64.656
			c-17.302,10.928-25.498,12.749-25.498,12.749v207.629H2247.764z"/>
		<path style="fill:#8F8F8F;" d="M2247.764,641.567c0,0-1.821,12.749,21.856,12.749s26.409-12.749,26.409-12.749H2247.764z"/>
		<ellipse style="fill:#3C3A52;" cx="2207.695" cy="360.174" rx="6.83" ry="30.962"/>
		<circle style="fill:#3C3A52;" cx="2263.245" cy="360.174" r="8.196"/>
		<path style="fill:#3C3A52;" d="M2320.161,372.013h-17.302c-5.281,0-9.562-4.281-9.562-9.562l0,0c0-5.281,4.281-9.562,9.562-9.562
			h17.302c5.281,0,9.562,4.281,9.562,9.562l0,0C2329.723,367.732,2325.442,372.013,2320.161,372.013z"/>
		<path style="fill:#EDEDED;" d="M2217.712,321.927c0,0,20.945-22.766,48.265-27.32c27.32-4.553,37.337,4.553,34.605,9.107
			c-2.732,4.553-36.426,10.017-50.086,15.481s-25.498,11.839-25.498,11.839L2217.712,321.927z"/>
		<path style="fill:#EDEDED;" d="M2221.355,392.958c3.643,9.107,38.248,29.141,45.533,23.677
			c7.285-5.464-27.32-34.605-36.426-37.337C2225.156,377.706,2217.906,384.335,2221.355,392.958z"/>
		<path style="fill:#EDEDED;" d="M2257.781,444.865v196.701h21.856V444.865c0,0-5.464-6.375-11.839-6.375
			S2257.781,444.865,2257.781,444.865z"/>
		<path style="fill:#CDCDCD;" d="M2177.643,697.117c0,0,0-188.506,0-196.702c0-8.196-3.643-24.588-20.034-20.945
			c-16.392,3.643-22.766,11.838-30.052,17.302c-7.285,5.464-17.302,2.732-29.141-7.285c-11.838-10.017-12.977-29.141-12.977-29.141
			s-6.715-7.343-7.968-20.945c-1.594-17.302,1.138-36.426,11.839-41.89c0,0,15.481-25.498,40.979-22.766
			c25.498,2.732,81.959,43.711,90.155,91.065c8.196,47.354,6.375,230.396,6.375,230.396L2177.643,697.117z"/>
		<path style="fill:#8F8F8F;" d="M2177.643,697.117c0,0,1.821,11.839,22.766,11.839s26.409-12.749,26.409-12.749L2177.643,697.117z"
			/>
		<path style="fill:#EDEDED;" d="M2191.303,469.453c-5.017,5.947-2.732,226.753-2.732,226.753h20.034
			C2208.605,696.206,2215.891,440.312,2191.303,469.453z"/>
		<path style="fill:#3C3A52;" d="M2150.323,422.099c-10.928,0-10.017,18.213-0.911,18.213
			C2158.52,440.312,2158.52,422.099,2150.323,422.099z"/>
		<path style="fill:#3C3A52;" d="M2097.506,401.154c-16.392,0-19.124,56.461-0.911,56.461S2116.629,401.154,2097.506,401.154z"/>
		<path style="fill:#EDEDED;" d="M2104.791,393.868c-4.577-1.76,6.375-18.213,20.945-12.749
			C2140.306,386.583,2116.629,398.422,2104.791,393.868z"/>
	</g>
	<g>
		<g>
			<g>
				<path style="fill:#EEEEEE;" d="M1163.255,454.129h-6.574c-7.328,0-13.269-5.941-13.269-13.269v-47.782h33.112v47.782
					C1176.524,448.188,1170.583,454.129,1163.255,454.129z"/>
			</g>
			<g>
				<path style="fill:#DDDDDD;" d="M1152.38,441.366v-48.289h-8.968v48.289c0,7.048,5.714,12.762,12.762,12.762h7.588
					c0.233,0,0.46-0.023,0.69-0.035C1157.726,453.733,1152.38,448.182,1152.38,441.366z"/>
			</g>
			<g>
				<rect x="1114.438" y="194.403" style="fill:#CACACA;" width="87.955" height="87.955"/>
			</g>
			<g>
				<rect x="1114.438" y="194.403" style="fill:#8B8B8B;" width="11.382" height="87.955"/>
			</g>
			<g>
				<rect x="1137.203" y="226.48" style="fill:#857A66;" width="16.556" height="16.556"/>
			</g>
			<g>
				<rect x="1174.455" y="226.48" style="fill:#857A66;" width="16.556" height="16.556"/>
			</g>
			<g>
				<path style="fill:#FAFAFA;" d="M1181.499,398.251h-45.132c-17.826,0-32.276-14.451-32.276-32.276v-87.756h109.685v87.756
					C1213.776,383.801,1199.325,398.251,1181.499,398.251z"/>
			</g>
			<g>
				<path style="fill:#DDDDDD;" d="M1117.198,367.208v-88.99h-13.107v88.99c0,17.145,13.898,31.043,31.043,31.043h13.107
					C1131.096,398.251,1117.198,384.353,1117.198,367.208z"/>
			</g>
		</g>
		<g>
			<g>
				<path style="fill:#EEEEEE;" d="M1337.095,454.129h-6.574c-7.328,0-13.269-5.941-13.269-13.269v-47.782h33.112v47.782
					C1350.364,448.188,1344.424,454.129,1337.095,454.129z"/>
			</g>
			<g>
				<path style="fill:#DDDDDD;" d="M1326.22,441.366v-48.289h-8.968v48.289c0,7.048,5.714,12.762,12.762,12.762h7.589
					c0.233,0,0.46-0.023,0.69-0.035C1331.567,453.733,1326.22,448.182,1326.22,441.366z"/>
			</g>
			<g>
				<path style="fill:#CACACA;" d="M1354.848,309.607h-42.77v-40.372c0-4.754,3.854-8.607,8.607-8.607h25.556
					c4.753,0,8.607,3.853,8.607,8.607V309.607z"/>
			</g>
			<g>
				<path style="fill:#8B8B8B;" d="M1326.565,260.628h-6.209c-4.572,0-8.278,3.706-8.278,8.278v40.701h6.209v-40.701
					C1318.287,264.334,1321.993,260.628,1326.565,260.628z"/>
			</g>
			<g>
				<path style="fill:#FAFAFA;" d="M1348.423,397.216h-29.919c-8.121,0-14.704-6.583-14.704-14.704v-75.666h59.326v75.666
					C1363.126,390.633,1356.543,397.216,1348.423,397.216z"/>
			</g>
			<g>
				<path style="fill:#DDDDDD;" d="M1313.458,383.075v-76.227h-9.658v76.227c0,7.811,6.331,14.142,14.142,14.142h9.658
					C1319.789,397.216,1313.458,390.885,1313.458,383.075z"/>
			</g>
			<g>
				<rect x="1322.426" y="268.906" style="fill:#C4AD50;" width="28.973" height="15.177"/>
			</g>
			<g>
				<g>
					<rect x="1325.703" y="272.355" style="fill:#857A66;" width="3.104" height="8.968"/>
				</g>
				<g>
					<rect x="1331.911" y="272.355" style="fill:#857A66;" width="3.104" height="8.968"/>
				</g>
				<g>
					<rect x="1338.12" y="272.355" style="fill:#857A66;" width="3.104" height="8.968"/>
				</g>
				<g>
					<rect x="1344.328" y="272.355" style="fill:#857A66;" width="3.104" height="8.968"/>
				</g>
			</g>
		</g>
		<g>
			<path style="fill:#CACACA;" d="M1128.572,762.262c-9.98,0-20.565-0.451-32.346-1.404c-34.25-2.771-64.711-14.735-88.091-34.6
				c-13.171-11.191-22.613-25.908-26.586-41.44c-4.487-17.54-1.807-34.669,7.751-49.536c15.333-23.852,41.475-37.216,79.917-40.856
				c44.629-4.225,84.351,3.817,132.824,26.894c20.628,9.821,39.251,23.514,57.262,36.755c13.607,10.004,26.797,19.703,40.55,27.695
				c5.947-8.505,10.69-17.776,14.342-27.99c7.553-21.125,12.973-45.19,16.249-72.058c-5.208,0.053-10.398,0.199-15.53,0.4
				c-47.075,1.851-100.23-0.522-137.597-32.191c-27.604-23.395-29.323-64.59-27.364-101.803l15.394,0.811
				c-1.759,33.439-0.53,70.191,21.938,89.232c33.333,28.251,82.915,30.287,127.023,28.548c5.861-0.231,11.795-0.389,17.754-0.425
				c3.124-35.315,2.813-75.077-0.955-119.03l15.36-1.316c3.799,44.324,4.137,84.599,1.037,120.558
				c39.563,1.411,78.385,10.102,102.428,40.65c12.762,16.215,18.46,39.751,13.855,57.235c-5.42,20.576-21.118,38.772-40.968,47.488
				c-23.654,10.386-54.437,10.46-91.493,0.214c-9.554-2.641-18.623-6.291-27.332-10.617c-2.277,2.617-4.675,5.167-7.196,7.655
				c-27.831,27.465-79.824,38.646-95.096,41.418C1174.879,759.42,1153.629,762.262,1128.572,762.262z M1091.289,608.776
				c-6.793,0-13.642,0.336-20.618,0.997c-33.422,3.165-55.797,14.235-68.403,33.846c-16.404,25.516-3.283,54.635,15.849,70.892
				c20.903,17.76,48.342,28.473,79.352,30.982c39.658,3.21,65.29,0.46,101.478-6.11c29.208-5.303,67.406-17.866,87.021-37.223
				c1.421-1.403,2.798-2.827,4.131-4.276c-13.925-8.269-27.042-17.913-39.929-27.388c-17.43-12.815-35.453-26.066-54.757-35.256
				C1157.302,617.095,1125.056,608.776,1091.289,608.776z M1313.583,693.026c7.029,3.322,14.274,6.115,21.849,8.21
				c23.066,6.378,55.874,11.645,81.188,0.529c15.41-6.766,28.072-21.407,32.258-37.3c3.399-12.902-1.253-31.312-11.06-43.774
				c-20.607-26.181-55.712-33.638-91.881-34.813c-3.392,28.729-9.137,54.472-17.225,77.094
				C1324.809,673.883,1319.802,683.846,1313.583,693.026z"/>
		</g>
	</g>
	<g>
		<g>
			<rect x="2725.689" y="705.018" style="fill:#A5B9C9;" width="102.722" height="57.928"/>
			<rect x="2738.579" y="627.577" style="fill:#A5B9C9;" width="76.942" height="78.538"/>
			<rect x="2752.269" y="494.378" style="fill:#A5B9C9;" width="49.562" height="134.296"/>
			<rect x="2725.689" y="781.532" style="fill:#C03957;" width="102.722" height="989.076"/>
			<path style="fill:#363636;" d="M2828.348,1770.609h-102.659l0,0c0,21.16,17.154,38.314,38.313,38.314h26.032
				C2811.195,1808.922,2828.348,1791.769,2828.348,1770.609L2828.348,1770.609z"/>
			<rect x="2725.689" y="781.532" style="fill:#E04E5F;" width="40.269" height="989.076"/>
			<rect x="2725.689" y="757.678" style="fill:#363636;" width="102.722" height="23.854"/>
			<path style="fill:#CED3DB;" d="M2809.825,694.725h-65.55c-10.265,0-18.586,8.321-18.586,18.586l0,0h102.722l0,0
				C2828.411,703.046,2820.09,694.725,2809.825,694.725z"/>
			<path style="fill:#CED3DB;" d="M2815.521,627.577h-76.942l0,0c0-9.107,7.382-16.489,16.489-16.489h43.964
				C2808.139,611.088,2815.521,618.471,2815.521,627.577L2815.521,627.577z"/>
		</g>
		<path style="fill:#363636;" d="M2805.632,527.466h-61.953c-30.794,0-55.758-24.963-55.758-55.758l0,0h173.469l0,0
			C2861.39,502.502,2836.426,527.466,2805.632,527.466z"/>
		<path style="fill:#363636;" d="M2849.294,477.904h-149.277c-16.945,0-30.682-13.737-30.682-30.682v-6.49h210.64v6.49
			C2879.976,464.167,2866.239,477.904,2849.294,477.904z"/>
		<g>
			<rect x="2976.891" y="183.613" style="fill:#363636;" width="48.967" height="241.616"/>
			<path style="fill:#8A9DB2;" d="M3055.583,199.675h-108.417v-16.564c0-15.12,12.257-27.376,27.376-27.376h53.665
				c15.12,0,27.376,12.257,27.376,27.376V199.675z"/>
		</g>
		<path style="fill:#222222;" d="M2985.467,456.206h-414.236c-22.475,0-40.694-18.219-40.694-40.694v-30.538h495.623v30.538
			C3026.161,437.987,3007.941,456.206,2985.467,456.206z"/>
		<path style="fill:#222222;" d="M2572.819,425.23h-42.281V270.938c0-11.31,9.168-20.478,20.478-20.478h1.325
			c11.31,0,20.478,9.168,20.478,20.478V425.23z"/>
		
			<ellipse transform="matrix(0.2298 -0.9732 0.9732 0.2298 1322.3358 3345.3047)" style="fill:#363636;" cx="2774.656" cy="837.231" rx="30.976" ry="30.976"/>
		
			<ellipse transform="matrix(0.1602 -0.9871 0.9871 0.1602 1503.7848 3441.9485)" style="fill:#222222;" cx="2774.656" cy="837.231" rx="20.651" ry="20.651"/>
	</g>
	<path style="fill:#C03957;" d="M2423.997,982.949l-289.538-0.519c-33.479-0.06-60.668,27.032-60.728,60.511l-1.247,696.067
		c-0.06,33.479,27.032,60.668,60.511,60.728l289.538,0.519c33.479,0.06,60.668-27.032,60.729-60.511l1.246-696.067
		C2484.568,1010.198,2457.477,983.009,2423.997,982.949z M2207.071,1083.989h-64.597c-11.892,0-21.533-9.641-21.533-21.532
		c0-11.892,9.641-21.533,21.533-21.533h64.597c11.892,0,21.533,9.641,21.533,21.533
		C2228.604,1074.349,2218.963,1083.989,2207.071,1083.989z"/>
	<g>
		<path style="fill:#333434;" d="M807.947,155.734l-471.828,0.367c-26.281,0.02-49.678,16.999-57.478,42.096
			c-0.367,1.18-0.538,1.851-0.538,1.851l283.339-4.127l305.098,5.222c0,0-0.758-2.972-2.493-7.433
			C855.09,170.682,832.656,155.715,807.947,155.734z"/>
		<g>
			<path style="fill:#333434;" d="M248.723,261.263l-3.98,1.445c-13.851,5.024-22.278,15.536-21.458,26.764l5.927,81.269
				c0.665,9.115,7.353,17.436,17.954,22.341l1.516,0.701L248.723,261.263z"/>
		</g>
		<g>
			<path style="fill:#333434;" d="M900.427,261.466l3.981,1.447c13.846,5.033,22.267,15.549,21.44,26.777l-5.977,81.265
				c-0.67,9.115-7.364,17.432-17.968,22.33l-1.517,0.701L900.427,261.466z"/>
		</g>
		<g>
			<path style="fill:#CACACA;" d="M895.631,218.911c-8.504-20.671-24.304-35.265-69.288-36.494
				c-44.505-1.216-247.285-1.293-251.587-1.294c0,0-0.032,0-0.078,0c-4.303-0.001-207.083-0.051-251.588,1.138
				c-44.985,1.201-60.794,15.786-69.311,36.451c-8.516,20.666-11.01,220.052,10.86,266.26
				c21.869,46.206,54.697,40.137,102.11,45.015c47.165,4.852,206.196,0.116,207.859,0.066c1.665,0.051,160.69,4.886,207.859,0.063
				c47.417-4.848,80.241,1.241,102.139-44.951C906.504,438.97,904.135,239.583,895.631,218.911z"/>
		</g>
		<g>
			<path style="fill:#222222;" d="M862.778,275.825c-4.644-20.933-33.715-26.756-59.298-29.09
				c-24.392-2.226-214.749-4.502-232.421-4.71v-0.015c0,0-0.227,0.002-0.658,0.008c-0.43-0.006-0.657-0.008-0.657-0.008v0.015
				c-17.672,0.197-208.032,2.355-232.425,4.565c-25.583,2.318-54.657,8.123-59.315,29.053
				c-4.658,20.931-9.347,137.217,3.431,182.573c12.778,45.356,44.174,51.179,65.105,51.186c15.431,0.005,89.338,5.637,138.174,3.9
				c15.916-0.566,31.489-4.626,43.979-14.507l0.001-0.001c5.546-4.388,12.412-6.774,19.484-6.772l21.488,0.007l1.315,0l21.488,0.007
				c7.072,0.002,13.936,2.393,19.48,6.784v0c12.484,9.889,28.044,14.527,43.971,14.535c50.753,0.028,126.883-3.212,138.175-3.814
				c20.903-1.116,52.332-5.797,65.137-51.145C872.038,413.048,867.423,296.758,862.778,275.825z"/>
		</g>
		<g>
			<g>
				<path d="M262.943,245.031l-1.342-0.414c0.01-0.032,0.239-0.819,0.785-2.118l1.3,0.532
					C263.185,244.289,262.948,245.018,262.943,245.031z"/>
			</g>
			<g>
				<path style="fill:#FAFAFA;" d="M844.866,204.692c-26.658-10.029-253.429-11.882-271.947-12.018v-0.007
					c0,0-0.21,0.001-0.604,0.003c-0.393-0.002-0.605-0.004-0.605-0.004v0.007c-18.517,0.124-245.289,1.836-271.953,11.849
					c-23.413,8.792-33.971,31.346-36.723,38.249c2.573-6.134,12.537-24.358,41.555-29.29c34.019-5.784,254.737-8.698,267.722-8.865
					c12.985,0.175,233.702,3.226,267.716,9.032c29.018,4.952,38.97,23.185,41.538,29.319
					C878.82,236.064,868.276,213.499,844.866,204.692z"/>
			</g>
			<g>
				<path d="M881.653,245.222c-0.003-0.012-0.24-0.741-0.74-1.995l1.3-0.532c0.544,1.297,0.774,2.082,0.783,2.115L881.653,245.222z"
					/>
			</g>
		</g>
		<g>
			<path style="fill:#323232;" d="M346.608,293.107c0,0,2.334-25.582,11.639-31.394c9.305-5.811,407.008-3.361,418.636,0.13
				c11.627,3.492,17.433,31.403,17.433,31.403s-8.135-17.445-36.044-19.78c-27.907-2.335-360.491-0.112-376.771-0.117
				C365.221,273.344,346.608,293.107,346.608,293.107z"/>
		</g>
		<g>
			<path style="fill:#585858;" d="M336.124,316.731c-1.154,29.405-3.675,108.673,1.05,143.688c0.918,6.801,6.88,11.76,13.736,11.462
				l2.091-0.091c7.392-0.32,13.099-6.618,12.684-14.006c-1.7-30.235-5.366-103.829-3.042-139.697
				c0.539-8.317-6.632-15.047-14.902-14.009l0,0C341.292,304.888,336.379,310.237,336.124,316.731z"/>
		</g>
		<g>
			<path style="fill:#585858;" d="M376.383,294.831c-0.186,12.768-0.349,35.999,0.581,51.333c0.303,4.997,4.254,8.988,9.248,9.325
				l0,0c5.711,0.386,10.565-4.121,10.603-9.845l0.334-50.635c0.038-5.74-4.783-10.317-10.513-9.982l-0.902,0.053
				C380.539,285.384,376.459,289.627,376.383,294.831z"/>
		</g>
		<g>
			<path style="fill:#323232;" d="M809.858,264.589c0,0,18.637,40.445,16.067,126.79c-1.888,63.431-7.659,97.272-7.659,97.272
				s20.348-7.644,27.987-36.06c7.639-28.414,5.985-160.664,2.597-171.595C845.461,270.065,809.858,264.589,809.858,264.589z"/>
		</g>
	</g>
	<g>
		<g>
			<g>
				<path style="fill:#707070;" d="M621.769,1812.362c-37.06-16.752-115.398-13.173-148.851-11.643
					c-3.183,0.146-6.452,0.354-9.614,0.556c-13.857,0.882-28.186,1.798-41.975-1.988c-17.263-4.739-34.416-19.619-33.797-38.892
					c0.604-18.798,17.462-32.158,33.901-37.06c10.749-3.204,21.954-3.834,32.79-4.443c5.452-0.306,11.089-0.623,16.522-1.268
					c18.722-2.225,37.091-8.646,53.12-18.571c6.069-3.757,14.625-9.749,18.833-18.356c6.396-13.081,1.274-28.955-6.639-38.883
					c-9.589-12.029-24.257-19.427-35.964-24.527c-26.344-11.476-54.208-18.662-82.819-21.359
					c-5.215-0.491-10.623-0.858-15.855-1.212c-23.033-1.561-46.851-3.175-66.655-15.757c-23.36-14.842-37.919-43.882-38.944-77.682
					c-0.905-29.845,7.779-58.473,16.177-86.158l7.028,2.131c-8.226,27.12-16.732,55.162-15.864,83.804
					c0.952,31.365,14.238,58.17,35.542,71.706c18.226,11.579,41.096,13.129,63.212,14.628c5.279,0.358,10.737,0.727,16.048,1.228
					c29.386,2.77,58.005,10.151,85.062,21.938c12.486,5.44,28.177,13.388,38.775,26.682c11.241,14.102,14.253,32.864,7.495,46.688
					c-5.042,10.312-14.723,17.138-21.566,21.374c-16.935,10.485-36.341,17.269-56.119,19.618c-5.66,0.673-11.413,0.997-16.977,1.309
					c-10.892,0.612-21.18,1.19-31.103,4.149c-13.464,4.014-28.175,15.195-28.659,30.256c-0.492,15.31,14.266,27.694,28.401,31.575
					c12.603,3.46,26.308,2.586,39.563,1.74c3.194-0.204,6.497-0.414,9.746-0.563c36.857-1.683,113.548-5.19,152.211,12.287
					L621.769,1812.362z"/>
			</g>
			<g>
				<path style="fill:#707070;" d="M620.15,1811.224c-12.703-18.337-36.003-21.652-60.67-25.161
					c-9.553-1.358-19.43-2.764-28.603-5.124c-12.462-3.205-24.247-11.759-22.484-23.642c0.856-5.772,4.97-10.951,12.229-15.396
					c18.044-11.048,39.347-12.881,59.949-14.654c7.988-0.687,16.248-1.398,24.112-2.642c61.427-9.727,118.24-56.812,151.976-125.952
					c27.919-57.218,47.298-124.979,57.602-201.402l7.279,0.98c-10.409,77.203-30.017,145.717-58.28,203.642
					c-16.07,32.935-38.171,62.159-63.914,84.516c-28.651,24.883-60.114,40.18-93.515,45.469c-8.122,1.286-16.514,2.008-24.631,2.706
					c-20.662,1.778-40.178,3.458-56.743,13.6c-5.317,3.256-8.278,6.691-8.8,10.21c-1.087,7.325,8.076,13.144,17.048,15.451
					c8.78,2.259,18.453,3.635,27.808,4.966c25.144,3.577,51.143,7.276,65.673,28.249L620.15,1811.224z"/>
			</g>
			<g>
				<g>
					<path style="fill:#606060;" d="M709.858,1843.203l-37.138-13.082l3.931-11.161l37.138,13.082
						c3.082,1.086,4.7,4.464,3.615,7.546l0,0C716.319,1842.671,712.94,1844.289,709.858,1843.203z"/>
				</g>
				<g>
					<path style="fill:#0E0F1F;" d="M672.576,1834.829l-55.034-19.386c-5.42-1.909-8.266-7.851-6.357-13.271l0,0
						c1.909-5.42,7.851-8.266,13.271-6.357l55.034,19.386c1.807,0.636,2.755,2.617,2.119,4.423L677,1832.71
						C676.363,1834.517,674.383,1835.465,672.576,1834.829z"/>
				</g>
				<g>
					
						<rect x="679.953" y="1827.113" transform="matrix(0.3326 -0.9431 0.9431 0.3326 -1266.7672 1866.7441)" style="fill:#444444;" width="11.017" height="2.449"/>
				</g>
				<g>
					
						<rect x="688.805" y="1830.231" transform="matrix(0.3326 -0.9431 0.9431 0.3326 -1263.8004 1877.1508)" style="fill:#444444;" width="11.016" height="2.449"/>
				</g>
				<g>
					
						<rect x="697.656" y="1833.349" transform="matrix(0.3325 -0.9431 0.9431 0.3325 -1260.8304 1887.6816)" style="fill:#444444;" width="11.017" height="2.449"/>
				</g>
				<g>
					
						<rect x="706.508" y="1836.466" transform="matrix(0.3325 -0.9431 0.9431 0.3325 -1257.8644 1898.0615)" style="fill:#444444;" width="11.016" height="2.449"/>
				</g>
			</g>
		</g>
		<g>
			<g>
				<path style="fill:#222222;" d="M312.646,1339.23c15.029-26.301,51.349-36.32,68.883-38.825l28.732,186.172
					c0,0-44.664,6.74-68.882-8.31C315.151,1461.968,296.981,1366.644,312.646,1339.23z"/>
			</g>
			<g>
				<path style="fill:#585858;" d="M380.277,1300.405l28.732,186.172c0,0,19.28,15.465,30.132-0.813
					c10.019-15.029-17.534-196.631-31.311-199.136C391.07,1283.581,380.277,1300.405,380.277,1300.405z"/>
			</g>
		</g>
		<g>
			<path style="fill:#222222;" d="M318.161,1200.516c-6.572-4.614-8.928-14.188-5.346-21.948
				c20.399-44.194,89.559-182.826,250.322-182.826c161.389,0,230.248,139.673,246.476,183.338
				c2.834,7.626,0.297,16.438-5.937,20.755l-0.321,0.223c-7.27,5.035-16.758,2.095-20.779-6.414
				c-19.819-41.945-89.996-156.789-221.58-156.789c-133.131,0-200.338,117.438-222.457,158.24
				C334.26,1202.988,325.111,1205.396,318.161,1200.516L318.161,1200.516z"/>
		</g>
		<g>
			<g>
				<path style="fill:#222222;" d="M310.113,1423.255c-20.536-79.577-14.026-145.649-4.948-187.065
					c9.879-45.075,24.528-71.028,25.146-72.111l10.628,6.073l-5.314-3.036l5.317,3.031c-0.144,0.253-14.49,25.778-23.935,69.192
					c-8.705,40.01-14.91,103.865,4.959,180.858L310.113,1423.255z"/>
			</g>
		</g>
		<g>
			<g>
				<path style="fill:#222222;" d="M813.113,1339.23c-15.029-26.301-51.349-36.32-68.883-38.825l-28.732,186.172
					c0,0,44.664,6.74,68.882-8.31C810.608,1461.968,828.778,1366.644,813.113,1339.23z"/>
			</g>
			<g>
				<path style="fill:#585858;" d="M745.482,1300.405l-28.732,186.172c0,0-19.28,15.465-30.132-0.813
					c-10.019-15.029,17.534-196.631,31.311-199.136C734.689,1283.581,745.482,1300.405,745.482,1300.405z"/>
			</g>
		</g>
		<g>
			<g>
				<path style="fill:#222222;" d="M815.646,1423.255l-11.853-3.059c19.869-76.993,13.664-140.848,4.96-180.858
					c-9.445-43.414-23.792-68.939-23.935-69.192l10.631-6.068c0.618,1.083,15.267,27.036,25.146,72.111
					C829.672,1277.605,836.181,1343.678,815.646,1423.255z"/>
			</g>
		</g>
	</g>
	<g>
		<path style="fill:#585858;" d="M286.072,985.278L286.072,985.278c-4.276,0-7.742-3.466-7.742-7.742v-30.968h15.484v30.968
			C293.814,981.812,290.348,985.278,286.072,985.278z"/>
		<rect x="274.459" y="893.922" style="fill:#EEEFE9;" width="23.226" height="54.194"/>
		<rect x="274.459" y="893.922" style="fill:#D9DCD1;" width="23.226" height="17.032"/>
		<path style="fill:#585858;" d="M375.106,985.278L375.106,985.278c-4.276,0-7.742-3.466-7.742-7.742v-30.968h15.484v30.968
			C382.848,981.812,379.381,985.278,375.106,985.278z"/>
		<rect x="363.492" y="893.922" style="fill:#EEEFE9;" width="23.226" height="54.194"/>
		<rect x="363.492" y="893.922" style="fill:#D9DCD1;" width="23.226" height="17.032"/>
		<path style="fill:#EEEFE9;" d="M410.302,900.115H251.649c-4.506,0-8.159-3.653-8.159-8.159v-97.133h174.971v97.133
			C418.461,896.463,414.808,900.115,410.302,900.115z"/>
		<path style="fill:#EEEFE9;" d="M432.089,808.759H226.766c-4.446,0-8.05-3.604-8.05-8.05V655.769
			c0-15.56,12.614-28.174,28.174-28.174h165.075c15.56,0,28.174,12.614,28.174,28.174v144.941
			C440.139,805.155,436.535,808.759,432.089,808.759z"/>
		<path style="fill:#D9DCD1;" d="M260.523,805.662h157.938v-10.839H243.49v97.445c0,4.334,3.513,7.847,7.847,7.847h9.186V805.662z"
			/>
		<rect x="243.49" y="794.823" style="fill:#B0B3AC;" width="174.971" height="34.065"/>
		<path style="fill:#EEEFE9;" d="M432.089,808.759H226.766c-4.446,0-8.05-3.604-8.05-8.05V655.769
			c0-15.56,12.614-28.174,28.174-28.174h165.075c15.56,0,28.174,12.614,28.174,28.174v144.941
			C440.139,805.155,436.535,808.759,432.089,808.759z"/>
		<path style="fill:#D9DCD1;" d="M246.587,804.048V654.922c0-15.093,12.235-27.328,27.328-27.328h-28.102
			c-14.966,0-27.097,12.132-27.097,27.097v146.325c0,4.276,3.466,7.742,7.742,7.742h21.748
			C247.205,807.446,246.587,805.826,246.587,804.048z"/>
	</g>
	<g>
		<g>
			<polygon style="fill:#222222;" points="597.698,739.135 570.586,769.439 570.586,865.129 667.871,865.129 667.871,739.135 			"/>
		</g>
		<g>
			<polygon style="fill:#ACAEAF;" points="597.698,771.032 597.698,739.135 667.871,739.135 667.966,770.933 			"/>
		</g>
		<g>
			<path style="fill:#5A5A5B;" d="M649.659,850.576h-61.26c-2.461,0-4.457-1.995-4.457-4.456v-45.312
				c0-2.461,1.995-4.456,4.457-4.456h61.261c2.461,0,4.456,1.995,4.456,4.456v45.312
				C654.116,848.581,652.12,850.576,649.659,850.576z"/>
		</g>
		<g>
			<g>
				<rect x="602.467" y="739.136" style="fill:#4E4F50;" width="2.423" height="31.9"/>
			</g>
			<g>
				<rect x="608.846" y="739.136" style="fill:#4E4F50;" width="2.423" height="31.9"/>
			</g>
			<g>
				<rect x="615.226" y="739.136" style="fill:#4E4F50;" width="2.423" height="31.9"/>
			</g>
			<g>
				<rect x="621.605" y="739.136" style="fill:#4E4F50;" width="2.423" height="31.9"/>
			</g>
			<g>
				<rect x="627.985" y="739.136" style="fill:#4E4F50;" width="2.423" height="31.9"/>
			</g>
			<g>
				<rect x="634.364" y="739.136" style="fill:#4E4F50;" width="2.423" height="31.9"/>
			</g>
			<g>
				<rect x="640.743" y="739.136" style="fill:#4E4F50;" width="2.423" height="31.9"/>
			</g>
			<g>
				<rect x="647.123" y="739.136" style="fill:#4E4F50;" width="2.423" height="31.9"/>
			</g>
			<g>
				<rect x="653.502" y="739.136" style="fill:#4E4F50;" width="2.423" height="31.9"/>
			</g>
			<g>
				<rect x="659.882" y="739.136" style="fill:#4E4F50;" width="2.423" height="31.9"/>
			</g>
		</g>
	</g>
	<g>
		<g>
			<path style="fill:#222222;" d="M793.327,759.834l18.227,22.83c0.437,0.547,0.675,1.227,0.675,1.928v74.257
				c0,1.707-1.383,3.09-3.09,3.09h-71.165c-1.706,0-3.09-1.383-3.09-3.09v-97.087c0-1.707,1.383-3.09,3.09-3.09h52.938
				C791.852,758.672,792.741,759.1,793.327,759.834z"/>
		</g>
		<g>
			<path style="fill:#EEEFE9;" d="M791.138,853.765h-36.154c-6.697,0-12.126-5.429-12.126-12.126v-43.33
				c0-6.697,5.429-12.126,12.126-12.126h36.153c6.697,0,12.126,5.429,12.126,12.126v43.33
				C803.264,848.336,797.835,853.765,791.138,853.765z"/>
		</g>
		<g>
			<polygon style="fill:#3D3D3D;" points="803.454,814.492 752.129,814.283 752.129,786.184 756.914,786.184 756.914,809.518 
				803.473,809.707 			"/>
		</g>
		<g>
			<rect x="767.978" y="786.184" style="fill:#3D3D3D;" width="4.785" height="25.717"/>
		</g>
		<g>
			<rect x="782.929" y="786.184" style="fill:#3D3D3D;" width="4.785" height="25.717"/>
		</g>
		<g>
			
				<rect x="742.659" y="823.961" transform="matrix(1 -0.0033 0.0033 1 -2.7072 2.5406)" style="fill:#3D3D3D;" width="60.605" height="4.785"/>
		</g>
		<g>
			<rect x="756.016" y="826.852" style="fill:#3D3D3D;" width="4.785" height="26.913"/>
		</g>
		<g>
			<rect x="769.772" y="826.852" style="fill:#3D3D3D;" width="4.785" height="26.913"/>
		</g>
		<g>
			<rect x="783.528" y="826.852" style="fill:#3D3D3D;" width="4.785" height="26.913"/>
		</g>
	</g>
	<g>
		<g>
			<path style="fill:#222222;" d="M915.444,863.534h-45.981c-2.997,0-5.427-2.43-5.427-5.427v-52.94c0-2.997,2.43-5.427,5.427-5.427
				h45.981c2.997,0,5.427,2.43,5.427,5.427v52.94C920.871,861.104,918.441,863.534,915.444,863.534z"/>
		</g>
		<g>
			<path style="fill:#EEEFE9;" d="M906.108,856.43h-26.294c-4.87,0-8.819-3.948-8.819-8.819v-31.513c0-4.87,3.948-8.819,8.819-8.819
				h26.294c4.87,0,8.819,3.948,8.819,8.819v31.513C914.926,852.481,910.978,856.43,906.108,856.43z"/>
		</g>
		<g>
			<polygon style="fill:#3D3D3D;" points="915.064,827.867 877.737,827.715 877.737,807.279 881.217,807.279 881.217,824.25 
				915.079,824.388 			"/>
		</g>
		<g>
			<rect x="889.264" y="807.279" style="fill:#3D3D3D;" width="3.48" height="18.703"/>
		</g>
		<g>
			<rect x="900.138" y="807.279" style="fill:#3D3D3D;" width="3.48" height="18.703"/>
		</g>
		<g>
			
				<rect x="870.85" y="834.754" transform="matrix(1 -0.0034 0.0034 1 -2.8075 3.0069)" style="fill:#3D3D3D;" width="44.076" height="3.48"/>
		</g>
		<g>
			<rect x="880.564" y="836.856" style="fill:#3D3D3D;" width="3.48" height="19.573"/>
		</g>
		<g>
			<rect x="890.568" y="836.856" style="fill:#3D3D3D;" width="3.48" height="19.573"/>
		</g>
		<g>
			<rect x="900.572" y="836.856" style="fill:#3D3D3D;" width="3.48" height="19.573"/>
		</g>
	</g>
	<g>
		<g>
			<g>
				<g>
					<path style="fill:#222222;" d="M1027.652,1799.736l289.538,0.519c33.479,0.06,60.668-27.032,60.728-60.511l1.247-696.067
						c0.06-33.479-27.032-60.668-60.511-60.728l-289.538-0.519c-33.479-0.06-60.668,27.031-60.728,60.511l-1.247,696.067
						C967.081,1772.487,994.173,1799.676,1027.652,1799.736z"/>
				</g>
				<g>
					<path style="fill:#FFFFFF;" d="M1354.173,1740.122l1.248-696.91c0.037-20.603-16.635-37.334-37.238-37.371l-288.68-0.517
						c-20.603-0.037-37.334,16.635-37.371,37.237l-1.248,696.91c-0.037,20.603,16.635,37.334,37.237,37.371l288.68,0.517
						C1337.405,1777.397,1354.136,1760.725,1354.173,1740.122z"/>
				</g>
			</g>
			<g>
				<path style="fill:#222222;" d="M1277.803,1003.988c0,0,3.121,28.557-28.602,28.5c-31.723-0.057-137.202-0.246-151.478-0.271
					c-14.275-0.026-26.146-14.322-26.12-28.598C1071.603,1003.619,1276.214,1005.572,1277.803,1003.988z"/>
			</g>
		</g>
		<g>
			<g>
				<path style="fill:#FFD733;" d="M1275.206,1380.352l-203.574,0.583c-17.109,0.049-31.018-13.781-31.067-30.89l-0.355-123.914
					c-0.049-17.109,13.781-31.019,30.89-31.067l203.574-0.583c17.109-0.049,31.018,13.781,31.067,30.89l0.355,123.915
					C1306.145,1366.393,1292.315,1380.303,1275.206,1380.352z"/>
			</g>
			<g>
				<path style="fill:#E59522;" d="M1173.239,1317.999l-123.885-111.975c-1.133-1.025-1.221-2.773-0.196-3.906
					c1.021-1.134,2.77-1.226,3.907-0.198l120.153,108.604l119.53-109.29c1.127-1.029,2.88-0.95,3.906,0.175
					c1.032,1.127,0.953,2.877-0.174,3.908L1173.239,1317.999z"/>
			</g>
			<g>
				<path style="fill:#E59522;" d="M1046.728,1370.443c-0.636-0.123-1.231-0.468-1.658-1.018c-0.937-1.206-0.719-2.944,0.486-3.881
					l97.147-75.513c1.211-0.941,2.948-0.716,3.881,0.486c0.937,1.206,0.719,2.944-0.486,3.881l-97.147,75.513
					C1048.295,1370.422,1047.483,1370.59,1046.728,1370.443z"/>
			</g>
			<g>
				<path style="fill:#E59522;" d="M1296.767,1369.728c-0.43-0.083-0.848-0.271-1.212-0.566l-95.37-77.174
					c-1.188-0.962-1.371-2.703-0.41-3.89c0.959-1.189,2.703-1.372,3.891-0.411l95.37,77.174c1.188,0.962,1.371,2.703,0.41,3.89
					C1298.781,1369.575,1297.738,1369.916,1296.767,1369.728z"/>
			</g>
		</g>
		<rect x="1041.651" y="1534.411" style="fill:#ABFFC3;" width="255.727" height="151.112"/>
		<rect x="1041.651" y="1438.514" style="fill:#98E7F4;" width="255.727" height="57.575"/>
	</g>
</g>
</svg>
